Coordinates
version=1
nRows=8
nColumns=40
inDegrees=yes

Units are S.I. units (second, meters, Newtons, ...)
Angles are in degrees.

endheader
time	pelvis_tilt	pelvis_list	pelvis_rotation	pelvis_tx	pelvis_ty	pelvis_tz	hip_flexion_r	hip_adduction_r	hip_rotation_r	knee_angle_r	knee_angle_r_beta	ankle_angle_r	subtalar_angle_r	mtp_angle_r	hip_flexion_l	hip_adduction_l	hip_rotation_l	knee_angle_l	knee_angle_l_beta	ankle_angle_l	subtalar_angle_l	mtp_angle_l	lumbar_extension	lumbar_bending	lumbar_rotation	arm_flex_r	arm_add_r	arm_rot_r	elbow_flex_r	pro_sup_r	wrist_flex_r	wrist_dev_r	arm_flex_l	arm_add_l	arm_rot_l	elbow_flex_l	pro_sup_l	wrist_flex_l	wrist_dev_l
      8.76000000	     -4.33424061	     -6.02629758	     -2.57967877	      0.96232132	      0.91684480	      0.53312689	     15.03903137	      8.03156313	     -7.02070814	     26.55063947	     26.55063947	     16.22205612	     -9.56398654	      0.84165328	     17.50476773	    -19.27384534	     -2.51553899	     53.90106311	     53.90106311	      3.00713070	    -18.45180225	     -7.22638357	     -9.64682639	      4.68225126	     -0.22852114	      9.15020634	    -20.19845745	    -11.43390500	     60.56964379	     44.52329741	      0.00000000	      0.00000000	     13.78475387	    -11.06524103	      7.83161528	     27.71399378	     44.08571640	      0.00000000	      0.00000000
      8.78342857	     -4.09722964	     -6.13924437	     -1.96061848	      0.96178261	      0.91465185	      0.53556711	     15.13444682	      8.41499048	     -6.74323229	     27.64264373	     27.64264373	     16.73401678	    -11.28519317	      0.97939995	     20.39521185	    -19.54551701	     -0.69744473	     58.35115495	     58.35115495	      0.95713725	    -18.84971346	     -4.86489288	     -9.74409829	      4.65817156	     -0.07663991	     11.78526089	    -19.87344340	    -11.61173906	     62.57678050	     44.51039884	      0.00000000	      0.00000000	     10.64156284	    -10.37212265	      8.11870200	     25.78336748	     44.07848296	      0.00000000	      0.00000000
      8.80685714	     -3.90114190	     -6.17530135	     -1.29458129	      0.96106786	      0.91236175	      0.53765033	     15.34454797	      8.58907991	     -6.83196661	     28.90258146	     28.90258146	     17.48265712	    -12.36453548	      1.28973878	     23.42453738	    -19.28991222	      1.49488393	     62.75625500	     62.75625500	      0.43238698	    -18.99832023	      1.67718305	     -9.85565927	      4.57311111	      0.12572799	     14.48680457	    -19.81156218	    -11.55720040	     64.89755998	     44.50752408	      0.00000000	      0.00000000	      7.11550528	     -9.80342101	      8.50690365	     24.88777611	     44.08767173	      0.00000000	      0.00000000
      8.83028571	     -3.61802011	     -6.21468099	     -0.59754357	      0.96034930	      0.91042306	      0.53970342	     15.34355224	      8.78680665	     -6.92176058	     29.93743719	     29.93743719	     18.04917085	    -13.44611155	      1.46180742	     25.98966883	    -19.03825829	      3.32932187	     66.26965710	     66.26965710	     -0.68995700	    -19.19186769	      5.55169422	    -10.10843837	      4.50077119	      0.11302199	     17.64551778	    -19.39867404	    -11.68715316	     67.07185816	     44.48460717	      0.00000000	      0.00000000	      3.60571985	     -9.33966862	      8.89705452	     23.72858480	     44.02232652	      0.00000000	      0.00000000
      8.85371429	     -3.53069168	     -6.34269511	      0.17060797	      0.95944120	      0.90854779	      0.54144674	     15.40154735	      9.02422525	     -7.25206036	     30.64783355	     30.64783355	     18.58696791	    -14.22677346	      1.52556009	     28.53948727	    -18.77162072	      5.05346356	     69.05014586	     69.05014586	     -1.49363624	    -19.33749634	      8.34485830	    -10.11258621	      4.52262701	      0.47556264	     20.53509074	    -19.29362029	    -11.84962463	     68.83788941	     44.45984119	      0.00000000	      0.00000000	      0.48488823	     -8.85593233	      9.18140164	     22.75802070	     43.94353953	      0.00000000	      0.00000000
      8.87714286	     -3.25276271	     -6.24824089	      0.92726816	      0.95841744	      0.90772819	      0.54260864	     15.12891554	      8.97630375	     -7.56462648	     31.15922128	     31.15922128	     19.24812057	    -14.59601443	      2.17671786	     30.59832913	    -17.94715670	      6.63217988	     71.19141517	     71.19141517	      0.05770563	    -19.37206523	     16.08767391	    -10.38848597	      4.38380361	      0.66289339	     23.93827524	    -19.29237156	    -11.39267313	     70.04303188	     44.47913123	      0.00000000	      0.00000000	     -2.79098328	     -8.69877879	      9.93170309	     23.00847603	     43.82027061	      0.00000000	      0.00000000
      8.90057143	     -3.13420633	     -6.25238273	      1.74689471	      0.95723420	      0.90727073	      0.54357450	     14.82719201	      9.02285200	     -8.02089710	     31.22224199	     31.22224199	     19.52597792	    -14.98186081	      2.32562514	     32.36491340	    -17.49684116	      7.67966243	     72.11824184	     72.11824184	      0.23209606	    -19.46343666	     17.13786577	    -10.51779457	      4.35573706	      0.98977919	     26.98685863	    -19.22097145	    -11.51456088	     71.68643378	     44.45916601	      0.00000000	      0.00000000	     -5.33224808	     -8.42537960	     10.30282112	     22.38984950	     43.72856056	      0.00000000	      0.00000000
      8.92400000	     -3.09074893	     -6.16325440	      2.59104346	      0.95582923	      0.90754125	      0.54393773	     14.46793199	      8.90914932	     -8.54945746	     31.01067177	     31.01067177	     19.78951880	    -15.05458827	      2.70020253	     33.92402146	    -16.77608135	      8.59151432	     72.20006383	     72.20006383	      1.78608019	    -19.49937568	     20.28323323	    -10.56693755	      4.27435384	      1.15394640	     30.28274758	    -19.21203735	    -10.90097453	     72.59266460	     44.48521898	      0.00000000	      0.00000000	     -8.13994409	     -8.56694464	     11.44524547	     23.44063452	     43.52024688	      0.00000000	      0.00000000
